<svg xmlns="http://www.w3.org/2000/svg" version="1.1" width="600px" height="600px" viewBox="0 0 200 200" style="overflow:hidden!important;"><g id="svga-group-wrapper"><g id="svga-group-backs-single"><path id="SvgjsPath49908" d="M0 0h200v200H0V0z" fill="#c5e0dc" stroke-width="none" opacity="1"></path></g><g id="svga-group-humanwrap-move" transform="matrix(1,0,0,1,0,0)"><g id="svga-group-humanwrap"><g id="svga-group-hair-back-move" transform="matrix(1,0,0,1,0,0)"><g id="svga-group-hair-back"></g></g><g id="svga-group-humanbody-back"><path id="SvgjsPath49863" d="m170 180.3-27.3-6.9-18-9.9-1.5-28.2H76.8l-1.5 28.2-18 9.9-27.3 6.9-9.1 19.7-3 20h164.2l-3-20z" fill="#8c5537" stroke-width="none" opacity="1"></path><path id="SvgjsPath49864" d="m76.8 135.3-1.5 28.2-18 9.9-27.3 6.9-9.1 19.7-3 20h14.6v-20l2.7-17.7 23.8-6.4 24.7-8.3 3.5-32.3z" fill="#6d3415" stroke-width="none" opacity="1"></path></g><g id="svga-group-chinshadow-single"><path id="SvgjsPath49859" d="m123.7 145.5-.5-10.2H76.8l-.8 15.1 7.1 6.4 14.1 4.1 14.2-4.1z" fill="#5e2709" stroke-width="none" opacity="1"></path></g><g id="svga-group-humanbody-front"><path id="SvgjsPath49865" d="m92.8 168.3 2 7.9 6.9 4.6s-8.5-3-8.7-3.6c-.2-.6-.2-8.9-.2-8.9z" fill="#6d3415" stroke-width="none" opacity="1"></path></g><g id="svga-group-clothes-single"><path id="SvgjsPath49746" d="m184.7 220-8.1-35.4-4.8-3.5-1.5-2-17.6-6.8-8.6-15.9-3.8-1.6-7.3-9-9.4-3.1.6 11-1.3 10.1-8.9 9.1-8.1 9.8-2.5 5-1.7-3.2-4.5-3.8-11.2-7.8-8.9-9.1-1.3-10.1.6-11-9.4 3.1-7.3 9-3.8 1.6-8.6 15.9-17.6 6.8-1.5 2-4.8 3.5-8.1 35.4z" fill="#82cbe2" stroke-width="none" opacity="1"></path><path id="SvgjsPath49747" d="m134.2 188.8-15 3.8-9.9.2-.1-1.7 1.3-.1-.7-2.3-3.2.3-.1 2.3.8-.1v1.6h-2.1l2.1.2.1 5.9-.7 7.4 1.6 7.5.3 4.8 2.6-1-.3-5.1-2-6.6.9-7.3-.3-5.6 9.7.7 15.8-4.1 16-12.2 2-5.3-3.2 4.1-15.6 12.6zm-32.2 4.3-2.5-.2.2-1.8.6.1 1.2-2.2-3.3-2.3-2 1.9 1.2 2.3h.1v1.9l-1.5-.1-26-6.9-15.8-11 1.9-11L59 160l11 18.7 17.7 7.2-14.8-7.9-8.1-12.4 2.2-19.8-7.2 8.9-3.8 1.7-8.6 15.8-17.7 6.8-1.5 2-4.8 3.5-8.1 35.5h10.2l1.3-14.3 3.3-18.1 2.9 2.6 2.6 13.9 1.2 15.9v-16.2l-2.6-15.3-2.2-4.3 1.4-1.7 16.7-6L69 187.3l26.8 6.2 1.5-.1-.1 3.4 1.4 9.9s-3 9.8-2.8 9.9c.3.2 1.7 2.8 1.8 2.6.1-.3 3.5-12.5 3.5-12.5l-1.9-10.4.3-3.1 2.5-.1zm-26.2-39.4.6-10.8-4 5.1-.7 8.4 5.4 7.5-1.3-10.2zm49.1 11 6.7-6.9-.7-10.8-7.3-4.3.6 11-1.3 10.2-8.9 9.1-8.1 9.8-2.5 5 6.5-8.5 15-14.6zm-18.1 22.4 22.9-5 11.2-13.4 3.2-12.3-3.8-1.7-2.4 13-8.6 13.1-22.5 6.3zm56.5 9.7.8 21.6.5-20.4 4.5-13.1-5.8 11.9z" fill="#64b8d3" stroke-width="none" opacity="1"></path><path id="SvgjsPath49748" d="m137.4 165.7 1.2-10.5-6-6.2 1.4 10.3-10.3 16.1-14 8.7 18.6-4.5 9.1-13.9zm13.6 6.2-6.2-10.1c.2.6-2.1 9.5-2.1 9.5l-10.3 12.4-15.5 7.2 16.7-3.1 15.7-12.6 1.7-3.3zm24.8 14-3.7-1.9-2.3 5.6 3.9 9.3 3.9 19.2 4.1.2-5.9-32.4zm-7.7-6.5-14.4-4.8-2.5 5-8.3 5.6 19.4.6 4.5 1.2 3.7-5.6-2.4-2zM85 175.6l-10.1-10.3-3.7-7.4-1.4.6 3.1 11.6 11.6 9.1 14.4 5.6 3.1 3.9-3.3-5.6-13.7-7.5zm43.1-12.5-16.7 16.1-6.6 8.5 13.4-11.6 9.9-13z" fill="#a3dff1" stroke-width="none" opacity="1"></path></g><g id="svga-group-head" transform="matrix(1,0,0,1,0,0)"><g id="svga-group-ears-left-move" transform="matrix(1,0,0,1,0,0)"><g id="svga-group-ears-left"><path id="SvgjsPath49761" d="M64.4 98.1 54.2 87l-5.4 1.3 4.4 13.8-.1 8.8 4.1 8.5 3.8-.6 4.9-9.3z" fill="#8c5537" stroke-width="none" opacity="1"></path><path id="SvgjsPath49762" d="m52.8 97.9-2.3-8.8L58 102l-1.4.2 2.1 5.5-.1 5.1-4-3.7-.1-10.8-2.1-4.5z" fill="#6d3415" stroke-width="none" opacity="1"></path><path id="SvgjsPath49763" d="M50.66 87.86 54.2 87l10.2 11.1 1.5 11.4-4.9 9.3-3.8.6-1.92-3.98c1.4 1.3 2.52 2.48 2.52 2.48l2.5-2s1-10.8 1.1-11.2c.1-.4-5.5-11.8-5.5-11.8l-5.24-5.04z" fill="#7d4425" stroke-width="none" opacity="1"></path></g></g><g id="svga-group-ears-right-move" transform="matrix(1,0,0,1,0,0)"><g id="svga-group-ears-right"><path id="SvgjsPath49764" d="M135.6 98.1 145.8 87l5.4 1.3-4.4 13.8.1 8.8-4.1 8.5-3.8-.6-4.9-9.3z" fill="#8c5537" stroke-width="none" opacity="1"></path><path id="SvgjsPath49765" d="m147.2 97.9 2.3-8.8L142 102l1.4.2-2.1 5.5.1 5.1 4-3.7.1-10.8 2.1-4.5z" fill="#6d3415" stroke-width="none" opacity="1"></path><path id="SvgjsPath49766" d="M149.32 87.86 145.8 87l-10.2 11.1-1.5 11.4 4.9 9.3 3.77.58 1.96-4.01c-1.4 1.3-2.54 2.53-2.54 2.53l-2.5-2s-1-10.8-1.1-11.2c-.1-.4 5.5-11.8 5.5-11.8l5.23-5.04z" fill="#7d4425" stroke-width="none" opacity="1"></path></g></g><g id="svga-group-faceshape-wrap"><g id="svga-group-faceshape-single"><path id="SvgjsPath49845" d="M138.1 60c-6.9-11.6-19.7-19.5-19.7-19.5-7.2-1.5-18.4-2.3-18.4-2.3s-11.1.8-18.4 2.3c0 0-12.8 7.9-19.7 19.5 0 0-5.1 14.5-5.3 24.8l3.7 42.9 25.6 23.5 14.1 4 14.1-4 25.6-23.5 3.7-42.9c-.2-10.3-5.3-24.8-5.3-24.8z" fill="#8c5537" stroke-width="none" opacity="1"></path><path id="SvgjsPath49846" d="M86.5 148.4 66.3 125l-3.8-40.6 3.6-22.8c1.9-3.3 17.1-17.5 17.1-17.5l16.6-3 18.6-.6c-7.2-1.5-18.4-2.3-18.4-2.3s-11.1.8-18.4 2.3c0 0-12.8 7.9-19.7 19.5 0 0-5.1 14.5-5.3 24.8l3.7 42.9 25.6 23.5 14.1 4 14.1-4-14.4 2.6-13.2-5.4z" fill="#6d3415" stroke-width="none" opacity="1"></path></g></g><g id="svga-group-mouth-single-move" transform="matrix(1,0,0,1,0,0)"><g id="svga-group-mouth-single"><path id="SvgjsPath49926" d="m88.29 132.15 1.89 3.31 2.76 2.34h14.91l2.86-2.61 1.41-3.04h-1.08l-4.65-2.13-12.32.05z" fill="#9d6d5f" stroke-width="none" opacity="1" transform="translate(0 2)"></path><path id="SvgjsPath49927" d="m87.91 131.91 1.39-3.21 4.66-4.57h12.59l4.55 3.97 1.45 4.03-.7.27-5.46-2.38H93.64l-4.59 2.43z" fill="#956253" stroke-width="none" opacity="1" transform="translate(0 2)"></path><path id="SvgjsPath49928" d="M85.9 131.4 89 133l5.6-2.3h11.8l5.4 2.5 3-1.6-3.2.3-4.7-2.6-13.1.1-4.9 2.5z" fill="#8e5748" stroke-width="none" opacity="1" transform="translate(0 2)"></path></g></g><g id="svga-group-eyes-left-move" transform="matrix(1,0,0,1,0,0)"><g id="svga-group-eyes-left"><g id="svga-group-eyesback-left"><path id="SvgjsPath49801" d="M92.5 96.6 88 92.7S75 92 74.7 92s-6.3 4.2-6.1 4.4c.2.2 6.5 3 9 3.5 0 0 3.8 0 7.7-.8 2.8-.8 5.7-1.9 7.2-2.5z" fill="#ffffff" stroke-width="none" opacity="1"></path></g><g id="svga-group-eyesiriswrapper-left" transform="matrix(1,0,0,1,0,0)"><g id="svga-group-eyesiriscontrol-left" transform="matrix(1,0,0,1,0,0)"><g id="svga-group-eyesiris-left"><path id="SvgjsPath49880" d="m82.2 100.2-5.5-2-1-5.8 4.5-3.8 5.5 2.1 1 5.7z" fill="#3e4442" stroke-width="none" opacity="1"></path><path id="SvgjsPath49881" d="m77.3 95.7.8-4 3.9-1.2 3 2.7-.8 4-3.9 1.2z" fill="#000000" stroke-width="none" opacity="1"></path><path id="SvgjsPath49882" d="m77.7 91.3 3.5 4-1.5-5.9z" fill="#ffffff" stroke-width="none" opacity="1"></path></g></g></g><g id="svga-group-eyesfront-left"><path id="SvgjsPath49809" d="M67.1 89.3v11.9l7.9 8.4h11.2l7.9-8.4V89.3l-7.9-8.4H75l-7.9 8.4zm1.5 7c-.2-.2 5.9-4.4 6.1-4.4s13.3.8 13.3.8l4.5 3.9c-1.5.7-4.4 1.8-7.2 2.4-3.9.9-7.7.8-7.7.8-2.5-.4-8.7-3.3-9-3.5z" fill="#8c5537" stroke-width="none" opacity="1"></path><path id="SvgjsPath49810" d="m93 96.8-1.2-.5-4.1-3.4-12.9-.6-4.5 3.1-1.1 1 6.3 2.8-2.9-.7-4.7-2.1 1.8-1.8 5-3 13.3.9z" fill="#210d34" stroke-width="none" opacity="1"></path><path id="SvgjsPath49811" d="m91.5 94.7-3.8-4.5-9.7-.1-2.9 1.3 3.4-.9 9.1.2z" fill="#7d4425" stroke-width="none" opacity="1"></path></g></g></g><g id="svga-group-eyes-right-move" transform="matrix(1,0,0,1,0,0)"><g id="svga-group-eyes-right"><g id="svga-group-eyesback-right"><path id="SvgjsPath49802" d="m107.5 96.6 4.5-3.9s13-.7 13.3-.7 6.3 4.2 6.1 4.4c-.2.2-6.5 3-9 3.5 0 0-3.8 0-7.7-.8-2.8-.8-5.7-1.9-7.2-2.5z" fill="#ffffff" stroke-width="none" opacity="1"></path></g><g id="svga-group-eyesiriswrapper-right" transform="matrix(1,0,0,1,0,0)"><g id="svga-group-eyesiriscontrol-right" transform="matrix(1,0,0,1,0,0)"><g id="svga-group-eyesiris-right"><path id="SvgjsPath49883" d="m119.8 100.2-5.5-2-1-5.8 4.5-3.8 5.5 2.1 1 5.7z" fill="#3e4442" stroke-width="none" opacity="1"></path><path id="SvgjsPath49884" d="m115 95.7.8-4 3.9-1.2 3 2.7-.8 4-3.9 1.2z" fill="#000000" stroke-width="none" opacity="1"></path><path id="SvgjsPath49885" d="m115.3 91.3 3.6 4-1.5-5.9z" fill="#ffffff" stroke-width="none" opacity="1"></path></g></g></g><g id="svga-group-eyesfront-right"><path id="SvgjsPath49812" d="M125 80.8h-11.2l-7.9 8.4v11.9l7.9 8.4H125l7.9-8.4V89.3l-7.9-8.5zm-2.6 19s-3.8 0-7.7-.8c-2.8-.6-5.7-1.7-7.2-2.4l4.5-3.9s13-.7 13.3-.7 6.3 4.2 6.1 4.4-6.5 3-9 3.4z" fill="#8c5537" stroke-width="none" opacity="1"></path><path id="SvgjsPath49815" d="m107 96.8 1.2-.5 4.1-3.4 12.9-.6 4.5 3.1 1.1 1-6.3 2.8 2.9-.7 4.7-2.1-1.8-1.8-5-3-13.3.9z" fill="#210d34" stroke-width="none" opacity="1"></path><path id="SvgjsPath49816" d="m108.5 94.7 3.8-4.5 9.7-.1 2.9 1.3-3.4-.9-9.1.2z" fill="#7d4425" stroke-width="none" opacity="1"></path></g></g></g><g id="svga-group-facehighlight-single"></g><g id="svga-group-eyebrows-left-move" transform="matrix(1,0,0,1,0,0)"><g id="svga-group-eyebrows-left-rotate" transform="matrix(1,1.7453292519943295e-9,-1.7453292519943295e-9,1,1.4189527064445429e-7,-1.3552481448186882e-7)"><g id="svga-group-eyebrows-left"><path id="SvgjsPath49724" d="m90.2 77.1 1.5 3.8-.6 4.6-14.8-.6-12.7.3 1.4-1.8 13.6-6z" fill="#73625b" stroke-width="none" opacity="1"></path><path id="SvgjsPath49725" d="m86.9 78.8-1.5 6.4h-1l2.5-6.4zm3.9-.3.1.2-2.7 6.6-1.4-.1 4-6.7zm-16.5 6.4-2.5-3.3 3.4 3.3h-.9zm-4 .1-2 .1L66 84l4.3 1zm9.9-6.5.8 6.6h-.8v-6.6zM78.3 85l-.2-3 1 3.1-.8-.1z" fill="#644e45" stroke-width="none" opacity="1"></path></g></g></g><g id="svga-group-eyebrows-right-move" transform="matrix(1,0,0,1,0,0)"><g id="svga-group-eyebrows-right-rotate" transform="matrix(1,1.7453292519943295e-9,-1.7453292519943295e-9,1,1.4189527064445429e-7,-2.1354104262627516e-7)"><g id="svga-group-eyebrows-right"><path id="SvgjsPath49726" d="m109.8 77.1-1.5 3.8.6 4.6 14.8-.6 12.7.3-1.4-1.8-13.6-6z" fill="#73625b" stroke-width="none" opacity="1"></path><path id="SvgjsPath49727" d="m113.1 78.8 1.5 6.4h1l-2.5-6.4zm-3.9-.3-.1.2 2.7 6.6 1.4-.1-4-6.7zm16.5 6.4 2.5-3.3-3.4 3.3h.9zm4 .1 2 .1L134 84l-4.3 1zm-9.9-6.5-.8 6.6h.8v-6.6zm1.9 6.5.2-3-1 3.1.8-.1z" fill="#644e45" stroke-width="none" opacity="1"></path></g></g></g><g id="svga-group-beardwrap"><g id="svga-group-beard-single-move" transform="matrix(1,0,0,1,0,0)"><g id="svga-group-beard-single"><path id="SvgjsPath49714" d="m141.7 97.3-2.5 4-2.5 13.5-4.9 9.5-7.2 1.7 5.2-5.5-2.7-6.3-6.2 1.5 1.2 3.4 1-2.1 2.7.8-.6 2.7-4.1 2.3-9.1-4-6.6.8-4.5 2.1h-1.5l-4.5-2.1-6.6-.8-9.1 4-4.1-2.3-.6-2.7 2.7-.8 1 2.1 1.2-3.4-6.2-1.5-2.7 6.3 5.2 5.5-7.2-1.7-5-9.5-2.5-13.5-2.5-4-.5 24.6 1.7 23.4 1-.6 5.4 6.6.6-.8 11.6 9.1.6-.9 11.3 8.8 1-.6 8.3 4h1.5l8.3-4 1 .6 11.3-8.8.6.9 11.5-9.1.6.8 5.4-6.6 1 .6 5.4-22.5-1.9-20.1-2.5-5.4zm-34.3 47.6-2.2-3.8-4.6.5h-1.1l-4.6-.5-2.2 3.8L81.1 134l.1-6.3 9 1.1 5.7-.9 3.4-1.4h1.7l3.4 1.4 5.7.9 9-1.1.1 6.3-11.8 10.9z" fill="#2a232b" stroke-width="none" opacity="1"></path><path id="SvgjsPath49715" d="m121.1 158.2-.2-.7-13.4 8.9v-1l-5.2 3.1-.8-1.8-.8 2.4-1.6-3.1-.3 2.8-5.2-4-.6 1.2-5.2-4.8-1.3 1.5L75 152l-.8 1.5-8.7-9.8-.6 1.9-3.2-8.3-1.6-32.3.4-4.5-1.9-3.1-2.5 5.5-1.9 21 5.4 21.4 1-.6 5.4 6.7.6-.8 11.6 9.1.6-1 11.4 8.8 1-.6 8.2 4h1.5l8.2-4 1 .6 11.3-8.8.6 1 11.6-9.1-3.7 2.2-8.8 5.4zm-50.6-37.6 5.2 5.5-7.2-1.7 8.8 3.5 1.3 3.3.8 3 .8-4.9 1 4.8.1-6.3 9 1.1 5.7-.9 3.4-1.4h1.7l3.4 1.4 5.7.9 9-1.1.1 6.3 1-5.7 1 6.2 1.3-7.4.8 2.8 1.4-3.9 5.2-5.5-2.7-6.3 1 6.2-3.6 3.9-7.4 1.8-4.8-3.9 2.6 3.9-5.8-3 2.1 3.4-3.2.3-3.2-4.5 1.9 4.5-4.5-1.3-1.3-2.4.2 2.4-1.4-.2-.6-1.8-1.1 2.4-3.2 1.2 2.3-4.5-5 4 .8-3.1-5.6 3.6.8-2.5-3.4 2.2 3.1-5.1-6.4 4.2 1.3-2.5-3.4 2.1-.5-1.9-1.8.3-4.3-3.7 1-5.9-3.4 6.2zm22.3 24.3-10.4-9.7-.1 4.9 1.4 5.8v-2.8l.6-4.7 1.1 4.5 1.1-1.3 2.2 5.3.5-3.6 2.1 8.3.8-3.4 2.2 8-.2-9.5.8-5.7-2.1 3.9zm-10.9-10.2-.8-.7.2 2.3.6-1.6zm27.5 16.3.8 2.1.8-6.1.8 1 2.1-7.2s.6 2.5.6 2.9 4.6-9.8 4.6-9.8l-11.7 10.9.4 2.2-.3 10.8 1.9-6.8z" fill="#1b141c" stroke-width="none" opacity="1"></path></g></g></g><g id="svga-group-mustache-single-move" transform="matrix(1,0,0,1,0,0)"><g id="svga-group-mustache-single"></g></g><g id="svga-group-nose-single-move" transform="matrix(1,0,0,1,0,0)"><g id="svga-group-nose-single"><path id="SvgjsPath49913" d="m104.02 101.62 6.37 11.09-2.65 3.58-2.86-2.01-1.86 3.72h-6.3l-1.79-3.72-2.93 1.86-2.58-3.65 6.73-11.37 3.86-1.65z" fill="#8c5537" stroke-width="none" opacity="1" transform="translate(0 1)"></path><path id="SvgjsPath49914" d="m104.31 101.38-1.02-.41 6.61 11.51-2.05 2.93-1.77-1.21.28-1.31-1.4.6-2.05 4.04-2.7.1-3.2-.1-2.05-4.04-1.4-.6.28 1.31-1.77 1.21-2.04-2.93 6.61-11.51.42-13.8-1.45 14.21-6.7 11.3 3.26 4.24 2.79-2.01 1.58 3.53h6.84l1.58-3.53 2.8 2.01 3.26-4.24z" fill="#6d3415" stroke-width="none" opacity="1" transform="translate(0 1)"></path><path id="SvgjsPath49915" d="m96.51 113.01 1.67.79 3.93.1 1.96-.89-.74-3.01-1.27-3.98-2.6 5.23z" fill="#945e41" stroke-width="none" opacity="1" transform="translate(0 1)"></path></g></g><g id="svga-group-hair-front"><path id="SvgjsPath49970" d="m99.5 63.6-9.3-2.3-5-1.4-5.1-1.7-7.3-1.8-6.5 8.8-3 18.8-3 9.3-4.2-5.7-.4-10.7 1.2-15.1 7.3-12.1-1.1-6.2 3.9-9.7.4-6.5 3 7.7-1.2-7.3 3.6-7.2v4.6l1.8 3.6-.4-4 4.5 5.3 6.8 2-5.8-3.9-1.6-4.4 4.6 3 4 .4-2.8-3.6 5.9 3 21.1 2.6 4.9 3.5 10.3 4.8 1.8 3.2 4.6 4.3.8 4.2 8.5 6.8 2.4 19.2-.2 13.7-5.2 6.3-2.3-9.1-2-23.6L125 55l-14.8 6.1z" fill="#2a232b" stroke-width="none" opacity="1"></path><path id="SvgjsPath49971" d="m99.5 63.6-18.2-9L70.4 35l-1.2-7.3 3.6-7.3V25l1.8 3.6 10.5 9.5 11.4 7.7 1 14.1 2 3.7zm-26.7-7.2-8.6-6.7-1.1-6.2 3.9-9.7 5.3 15.7 14.5 10.7-14-3.8zm5.3-32.7 1.6 4.4 5.8 3.8 20.4 5.9 4.9 10.9-4.2 11.9-7.2 2.8 10.7-2.5s9.7-17.1 9.7-17.9-6.7-10-6.7-10l-28.2-4.2-4.9-2-1.9-3.1zm55.2 25.4L125 55l-10.1 4 10.5-9.2 2.4-9.2 4.6 4.2.9 4.3zm1.2 13.3 3.4-2.2 3.9-4.3-3.9 12.8-2.6 4.4-.8-10.7zm-68.2 2.8-3 18.8-6.5-22.2 6-9.7 3.5 13.1z" fill="#221b23" stroke-width="none" opacity="1"></path><path id="SvgjsPath49972" d="m79.3 31 25.5 7.1 6.1 10.8-4.3 11.9-6.7-17.1-15.1-7.5-5.5-5.2zm35.2 26.2 11-7.3 2.4-9.2-1.8-3.2-10.3-4.8 7.2 8.7-.6 5.2-7.9 10.6z" fill="#322c33" stroke-width="none" opacity="1"></path></g><g id="svga-group-glasses-single-move" transform="matrix(1,0,0,1,0,0)"><g id="svga-group-glasses-single"><path id="SvgjsPath49938" d="m65.4 93.1.5 5.4 3.7 4.7 9.8 2.1 7.9-1 6.2-4.1 1.9-6.1-3.2-3.1-8.4-1.1H77.4l-5.2-.1-4.4.9-2.4 2.4z" fill="#ffffff" stroke-width="none" opacity="0.44"></path><path id="SvgjsPath49939" d="m134.6 93.1-.5 5.4-3.7 4.7-9.8 2.1-7.9-1-6.2-4.1-1.9-6.1 3.3-3.1 8.4-1.1H122.7l5.2-.1 4.4.9 2.3 2.4z" fill="#ffffff" stroke-width="none" opacity="0.44"></path><path id="SvgjsPath49940" d="M95.6 93.9s3.8-1.7 8.6 0l.2 1s-5.7-.9-9 .1l.2-1.1z" fill="#000f01" stroke-width="none" opacity="1"></path><path id="SvgjsPath49941" d="m92.3 90.6-8.6-1.1h-6.4l-5.3-.2-4.5.9-2.2 2.3h-2.5v2.1h2.4v.1l.4 3.9 3.9 4.9 9.9 2.1h.1l8-1.1 6.4-4.3 2.1-6.4-3.7-3.2zm.9 9.3-6 4-7.8 1-9.6-2-3.6-4.5-.5-5.2 2.1-2.3L72 90l5.2.1h6.4l8.3 1.1 3.1 2.9-1.8 5.8z" fill="#092e0c" stroke-width="none" opacity="1"></path><path id="SvgjsPath49942" d="m104.1 94 2.1 6.4 6.4 4.3 8 1.1h.1l9.9-2.1 3.9-4.9.4-3.9v-.1h2.4v-2.1h-2.5l-2.2-2.3-4.5-.9-5.3.1h-6.4l-8.6 1.1-3.7 3.3zm.8.2 3.1-2.9 8.3-1.1h6.4l5.2-.1 4.2.9 2.1 2.3-.5 5.2-3.6 4.5-9.6 2-7.8-1-6-4-1.8-5.8z" fill="#092e0c" stroke-width="none" opacity="1"></path></g></g></g></g></g><rect id="svga-credit-rect" width="200" height="15" x="0" y="185" fill="#ecf0f1" opacity="0.5" style="display: none;"></rect><text id="svga-credit-text" font-family="Avenir Next, Roboto, Helvetica, Arial, sans-serif" font-size="10px" text-anchor="start" font-weight="400" size="10px" anchor="start" weight="400" fill="#333333" x="33.43669891357422" y="182.60824704170227" style="display: none;"><tspan id="SvgjsTspan49713" dy="13" x="33.43669891357422">Created on AvatarMaker.com</tspan></text></g><defs id="SvgjsDefs49660"></defs></svg>